<svg xmlns="http://www.w3.org/2000/svg" width="20.911" height="20.91" viewBox="0 0 20.911 20.91">
    <path id="_104466_instagram_icon" data-name="104466_instagram_icon" d="M20.288,4.831H7.46A4.045,4.045,0,0,0,3.419,8.872V21.7A4.045,4.045,0,0,0,7.46,25.741H20.289A4.045,4.045,0,0,0,24.329,21.7V8.871A4.045,4.045,0,0,0,20.288,4.831Zm1.159,2.41.462,0v3.544l-3.532.011-.012-3.544ZM10.89,13.14a3.674,3.674,0,1,1-.7,2.146A3.679,3.679,0,0,1,10.89,13.14Zm11.4,8.56a2.005,2.005,0,0,1-2,2H7.46a2.005,2.005,0,0,1-2-2V13.14H8.577a5.718,5.718,0,1,0,10.592,0h3.122Z" transform="translate(-3.419 -4.831)" fill="#4e97bb"/>
</svg>
