<svg xmlns="http://www.w3.org/2000/svg" width="20.914" height="16.997" viewBox="0 0 20.914 16.997">
    <path id="_367607_twitter_social_icon" data-name="367607_twitter_social_icon" d="M64.773,89.572c.008.184.012.369.012.555A12.2,12.2,0,0,1,46,100.407a8.737,8.737,0,0,0,1.024.06,8.61,8.61,0,0,0,5.328-1.837,4.3,4.3,0,0,1-4.008-2.979,4.3,4.3,0,0,0,1.938-.074A4.293,4.293,0,0,1,46.84,91.37v-.054a4.276,4.276,0,0,0,1.944.537,4.3,4.3,0,0,1-1.328-5.729A12.183,12.183,0,0,0,56.3,90.608a4.293,4.293,0,0,1,7.311-3.913,8.6,8.6,0,0,0,2.725-1.042,4.306,4.306,0,0,1-1.887,2.374,8.567,8.567,0,0,0,2.464-.676A8.721,8.721,0,0,1,64.773,89.572Z" transform="translate(-46 -85.339)" fill="#4e97bb" fill-rule="evenodd"/>
</svg>
