<svg xmlns="http://www.w3.org/2000/svg" width="22" height="27" viewBox="0 0 22 27">
    <path id="Path_2021" data-name="Path 2021" d="M8.6,25.6a2.48,2.48,0,0,0-2.189,2.7A2.48,2.48,0,0,0,8.6,31a2.488,2.488,0,0,0,2.2-2.7A2.488,2.488,0,0,0,8.6,25.6ZM2,4V6.7H4.2L8.155,16.94,6.67,20.247a3.249,3.249,0,0,0-.27,1.3,2.488,2.488,0,0,0,2.2,2.7H21.8v-2.7H9.068a.308.308,0,0,1-.275-.337.38.38,0,0,1,.033-.162l.984-2.2h8.2a2.185,2.185,0,0,0,1.925-1.39L23.862,8.7A1.542,1.542,0,0,0,24,8.05,1.244,1.244,0,0,0,22.9,6.7H6.637L5.592,4H2ZM19.6,25.6a2.48,2.48,0,0,0-2.189,2.7A2.48,2.48,0,0,0,19.6,31a2.488,2.488,0,0,0,2.2-2.7A2.488,2.488,0,0,0,19.6,25.6Z" transform="translate(-2 -4)" fill="#fff"/>
</svg>
